<svg width="14" height="14" viewBox="0 0 14 14" fill="none" xmlns="http://www.w3.org/2000/svg">
<path d="M13 7.98438H7.98438V13C7.98438 13.5625 7.5625 13.9844 7 13.9844C6.4375 13.9844 6.01562 13.5625 6.01562 13V7.98438H1C0.4375 7.98438 0.015625 7.5625 0.015625 7C0.015625 6.4375 0.4375 6.01562 1 6.01562H6.01562V1C6.01562 0.4375 6.4375 0.015625 7 0.015625C7.5625 0.015625 7.98438 0.4375 7.98438 1V6.01562H13C13.5625 6.01562 13.9844 6.4375 13.9844 7C13.9844 7.5625 13.5625 7.98438 13 7.98438Z" fill="currentColor"/>
</svg>
