<svg width="18" height="20" viewBox="0 0 18 20" fill="none" xmlns="http://www.w3.org/2000/svg">
<path d="M17.4844 4L18 6.01562C16.125 6.48438 14.0156 6.8125 12 7V19.9844H9.98438V13.9844H8.01562V19.9844H6V7C3.98438 6.8125 1.875 6.48438 0 6.01562L0.515625 4C3.09375 4.70312 6.1875 4.98438 9 4.98438C11.8125 4.98438 14.9062 4.70312 17.4844 4ZM9 4C7.92188 4 6.98438 3.10938 6.98438 1.98438C6.98438 0.90625 7.92188 0.015625 9 0.015625C10.0781 0.015625 11.0156 0.90625 11.0156 1.98438C11.0156 3.10938 10.0781 4 9 4Z" fill="currentColor"/>
</svg>
