<svg width="22" height="18" viewBox="0 0 22 18" fill="none" xmlns="http://www.w3.org/2000/svg">
<path d="M20.6094 15.1875C21.3594 15.7969 20.9375 17.0156 20 17.0156H2C1.0625 17.0156 0.640625 15.7969 1.39062 15.1875L10.0156 8.76562V6.98438C10.0156 6.46875 10.4375 6 10.9531 6C11.7969 6 12.5 5.34375 12.5 4.5C12.5 3.65625 11.8438 3 11 3C10.1562 3 9.5 3.65625 9.5 4.5H7.48438C7.48438 2.29688 9.54688 0.5625 11.7969 1.07812C13.1094 1.40625 14.1875 2.48438 14.4219 3.79688C14.7969 5.67188 13.6719 7.35938 11.9844 7.82812V8.76562L20.6094 15.1875ZM5 15H17L11 10.5L5 15Z" fill="currentColor"/>
</svg>
