<svg width="18" height="18" viewBox="0 0 18 18" fill="none" xmlns="http://www.w3.org/2000/svg">
<path d="M12.7969 4.21875C12.8906 4.17188 13.0312 4.21875 13.0781 4.3125L13.875 5.67188C13.9219 5.76562 13.9219 5.90625 13.8281 5.95312L12.9844 6.60938C12.9844 6.75 12.9844 6.84375 12.9844 6.98438C12.9844 7.125 12.9844 7.26562 12.9844 7.40625L13.7812 8.0625C13.875 8.10938 13.9219 8.20312 13.8281 8.29688L13.0312 9.70312C13.0312 9.79688 12.8906 9.79688 12.7969 9.79688L11.8125 9.375C11.625 9.5625 11.3906 9.65625 11.1562 9.75L11.0156 10.8281C10.9688 10.9219 10.9219 11.0156 10.7812 11.0156H9.1875C9.09375 11.0156 9 10.9219 9 10.8281L8.85938 9.75C8.625 9.65625 8.39062 9.5625 8.20312 9.375L7.17188 9.79688C7.07812 9.79688 6.98438 9.79688 6.9375 9.70312L6.14062 8.29688C6.09375 8.20312 6.09375 8.10938 6.1875 8.0625L7.03125 7.40625C7.03125 7.26562 6.98438 7.125 6.98438 6.98438C6.98438 6.89062 7.03125 6.75 7.03125 6.60938L6.1875 5.95312C6.14062 5.90625 6.09375 5.76562 6.14062 5.67188L6.9375 4.3125C6.98438 4.21875 7.07812 4.17188 7.17188 4.21875L8.20312 4.64062C8.39062 4.45312 8.625 4.3125 8.85938 4.21875L9 3.1875C9 3.04688 9.09375 3 9.1875 3H10.7812C10.9219 3 10.9688 3.04688 11.0156 3.1875L11.1562 4.21875C11.3906 4.3125 11.625 4.45312 11.8125 4.64062L12.7969 4.21875ZM9.98438 8.4375C10.7812 8.4375 11.4375 7.78125 11.4375 6.98438C11.4375 6.1875 10.7812 5.57812 9.98438 5.57812C9.1875 5.57812 8.57812 6.1875 8.57812 6.98438C8.57812 7.78125 9.1875 8.4375 9.98438 8.4375ZM16.9219 6.04688C17.3438 9.23438 15.6094 12.0469 12.9844 13.3125V18H6V15H5.01562C3.89062 15 3 14.1094 3 12.9844V11.0156H2.01562C1.21875 11.0156 0.75 10.125 1.17188 9.46875L3.09375 6C3.5625 2.625 6.46875 0 9.98438 0C10.125 0 10.2656 0 10.4062 0C13.6875 0.1875 16.5 2.8125 16.9219 6.04688ZM11.9062 11.625C13.6875 10.875 15 9.09375 15 6.98438C15 4.21875 12.75 2.01562 9.98438 2.01562C7.35938 2.01562 5.20312 4.07812 5.01562 6.65625L3.70312 9H5.01562V12.9844H8.01562V15.9844H11.0156V12.0469L11.9062 11.625Z" fill="currentColor"/>
</svg>
