<svg width="17" height="17" viewBox="0 0 17 17" fill="none" xmlns="http://www.w3.org/2000/svg">
<path d="M13.7861 2.41089L16.1299 0.0671387L16.1299 7.09839L9.09863 7.09839L12.333 3.86401C11.2549 2.78589 9.75488 2.08276 8.11426 2.08276C4.78613 2.08276 2.11426 4.75464 2.11426 8.08276C2.11426 11.4109 4.78613 14.0828 8.11426 14.0828C10.7393 14.0828 12.9424 12.3953 13.7861 10.0984L15.8486 10.0984C14.958 13.5203 11.8643 16.0984 8.11426 16.0984C3.70801 16.0984 0.145508 12.489 0.145508 8.08276C0.145508 3.67651 3.70801 0.0671387 8.11426 0.0671387C10.3174 0.0671387 12.333 1.00464 13.7861 2.41089Z" fill="currentColor"/>
</svg>
