<svg width="17" height="22" viewBox="0 0 17 22" fill="none" xmlns="http://www.w3.org/2000/svg">
<path d="M11.5 4.48438C10.375 4.48438 9.48438 3.59375 9.48438 2.46875C9.48438 1.39062 10.375 0.5 11.5 0.5C12.5781 0.5 13.4688 1.39062 13.4688 2.46875C13.4688 3.59375 12.5781 4.48438 11.5 4.48438ZM7.89062 18.3594L0.90625 17L1.28125 14.9844L6.20312 15.9688L7.79688 7.85938L5.96875 8.5625V11.9844H4V7.29688L9.20312 5.09375C9.48438 5.09375 9.67188 5 10 5C10.7031 5 11.3125 5.375 11.6875 5.98438L12.6719 7.57812C13.4688 8.98438 15.1094 9.96875 16.9844 9.96875V11.9844C14.7812 11.9844 12.8125 11 11.5 9.5L10.8906 12.5L13 14.4688V21.9688H10.9844V15.9688L8.875 14L7.89062 18.3594Z" fill="currentColor"/>
</svg>
