<svg width="18" height="22" viewBox="0 0 18 22" fill="none" xmlns="http://www.w3.org/2000/svg">
<path d="M12 0.984375V3H6V0.984375H12ZM8.01562 14.0156V8.01562H9.98438V14.0156H8.01562ZM16.0312 7.40625C17.25 8.95312 18 10.875 18 12.9844C18 17.9531 13.9688 21.9844 9 21.9844C4.03125 21.9844 0 17.9531 0 12.9844C0 8.01562 4.03125 3.98438 9 3.98438C11.1094 3.98438 13.0781 4.73438 14.625 6L16.0312 4.54688C16.5469 4.96875 17.0156 5.4375 17.4375 5.95312L16.0312 7.40625ZM9 20.0156C12.8906 20.0156 15.9844 16.875 15.9844 12.9844C15.9844 9.14062 12.8906 6 9 6C5.10938 6 2.01562 9.14062 2.01562 12.9844C2.01562 16.875 5.10938 20.0156 9 20.0156Z" fill="currentColor"/>
</svg>
